<?xml version="1.0" encoding="UTF-8" standalone="no"?>
<!-- Created with Inkscape (http://www.inkscape.org/) -->

<svg
   width="32"
   height="32"
   viewBox="0 0 8.4666666 8.4666666"
   version="1.1"
   id="svg1617"
   xml:space="preserve"
   sodipodi:docname="icon.svg"
   inkscape:version="1.2.2 (b0a8486541, 2022-12-01)"
   inkscape:export-filename="icon.png"
   inkscape:export-xdpi="3072"
   inkscape:export-ydpi="3072"
   xmlns:inkscape="http://www.inkscape.org/namespaces/inkscape"
   xmlns:sodipodi="http://sodipodi.sourceforge.net/DTD/sodipodi-0.dtd"
   xmlns:xlink="http://www.w3.org/1999/xlink"
   xmlns="http://www.w3.org/2000/svg"
   xmlns:svg="http://www.w3.org/2000/svg"><sodipodi:namedview
     id="namedview1619"
     pagecolor="#ffffff"
     bordercolor="#000000"
     borderopacity="0.25"
     inkscape:showpageshadow="2"
     inkscape:pageopacity="0.0"
     inkscape:pagecheckerboard="0"
     inkscape:deskcolor="#d1d1d1"
     inkscape:document-units="mm"
     showgrid="false"
     inkscape:zoom="30.075485"
     inkscape:cx="14.114486"
     inkscape:cy="14.862603"
     inkscape:window-width="1474"
     inkscape:window-height="1230"
     inkscape:window-x="550"
     inkscape:window-y="2308"
     inkscape:window-maximized="0"
     inkscape:current-layer="layer1-3-3"
     showguides="true"><inkscape:grid
       type="xygrid"
       id="grid1738"
       empspacing="4" /></sodipodi:namedview><defs
     id="defs1614"><linearGradient
       inkscape:collect="always"
       id="linearGradient2314"><stop
         style="stop-color:#23559d;stop-opacity:1;"
         offset="0"
         id="stop2310" /><stop
         style="stop-color:#b441a9;stop-opacity:1;"
         offset="1"
         id="stop2312" /></linearGradient><linearGradient
       inkscape:collect="always"
       id="linearGradient1553"><stop
         style="stop-color:#ff007b;stop-opacity:1;"
         offset="0"
         id="stop1549" /><stop
         style="stop-color:#fff264;stop-opacity:1;"
         offset="1"
         id="stop1551" /></linearGradient><inkscape:path-effect
       effect="mirror_symmetry"
       start_point="12,4"
       end_point="12,16"
       center_point="12,10"
       id="path-effect1022"
       is_visible="true"
       lpeversion="1.2"
       lpesatellites=""
       mode="vertical"
       discard_orig_path="false"
       fuse_paths="false"
       oposite_fuse="false"
       split_items="false"
       split_open="false"
       link_styles="false" /><inkscape:path-effect
       effect="mirror_symmetry"
       start_point="65.932044,1.090334"
       end_point="65.932044,136.9484"
       center_point="65.932044,69.019367"
       id="path-effect1091"
       is_visible="true"
       lpeversion="1.2"
       lpesatellites=""
       mode="vertical"
       discard_orig_path="false"
       fuse_paths="false"
       oposite_fuse="false"
       split_items="false"
       split_open="false"
       link_styles="false" /><inkscape:path-effect
       effect="mirror_symmetry"
       start_point="63.705161,2.7054047"
       end_point="63.705161,134.13758"
       center_point="63.705161,68.421492"
       id="path-effect1083"
       is_visible="true"
       lpeversion="1.2"
       lpesatellites=""
       mode="vertical"
       discard_orig_path="false"
       fuse_paths="false"
       oposite_fuse="false"
       split_items="false"
       split_open="false"
       link_styles="false" /><inkscape:path-effect
       effect="mirror_symmetry"
       start_point="64.000023,0.79196461"
       end_point="64.000023,132.22414"
       center_point="64.000023,66.508052"
       id="path-effect1079"
       is_visible="true"
       lpeversion="1.2"
       lpesatellites=""
       mode="vertical"
       discard_orig_path="false"
       fuse_paths="false"
       oposite_fuse="false"
       split_items="false"
       split_open="false"
       link_styles="false" /><inkscape:path-effect
       effect="mirror_symmetry"
       start_point="64.000023,0.79196461"
       end_point="64.000023,132.22414"
       center_point="64.000023,66.508052"
       id="path-effect402"
       is_visible="true"
       lpeversion="1.2"
       lpesatellites=""
       mode="vertical"
       discard_orig_path="false"
       fuse_paths="true"
       oposite_fuse="false"
       split_items="false"
       split_open="false"
       link_styles="false" /><linearGradient
       inkscape:collect="always"
       xlink:href="#linearGradient2314"
       id="linearGradient2728"
       gradientUnits="userSpaceOnUse"
       gradientTransform="matrix(1.0362695,0,0,1.0362695,-0.15354088,-0.15354088)"
       x1="0.46302044"
       y1="8.0036459"
       x2="8.0036459"
       y2="0.46302041" /><linearGradient
       inkscape:collect="always"
       xlink:href="#linearGradient1553"
       id="linearGradient2730"
       gradientUnits="userSpaceOnUse"
       gradientTransform="matrix(0.18394372,0,0,0.18394372,1.2902339,1.6219017)"
       x1="16"
       y1="30"
       x2="16"
       y2="2" /></defs><g
     inkscape:label="Colored"
     inkscape:groupmode="layer"
     id="layer1-3"
     style="display:inline"><path
       id="path2285-5"
       style="display:inline;fill:#150f2b;fill-opacity:1;stroke:url(#linearGradient2728);stroke-width:0.260471;stroke-dasharray:none;stroke-opacity:1"
       d="M 1.083249,6.4267704 H 7.3834172 M 1.0832489,2.0398962 H 7.3834174 M 0.39481839,4.2333333 H 8.0718482 c 0,0 -1.951e-4,0.045118 -5.836e-4,0.067613 C 8.0351953,6.3891822 6.3315279,8.0711086 4.2346863,8.0718478 2.1152617,8.072595 0.39631363,6.3554639 0.39481915,4.2360397 0.39332475,2.1166154 2.1098497,0.39706199 4.2292733,0.39482033 6.3486969,0.39257877 8.0688554,2.1084974 8.0718442,4.2279201 m -2.1934332,0.00541 c 0,2.1194248 -0.736173,3.8377675 -1.6444979,3.8385147 C 3.3255883,8.0725949 2.5888962,6.3554639 2.5882557,4.2360397 2.5876152,2.1166155 3.3232688,0.39706204 4.2315932,0.39482033 5.1399176,0.39257882 5.8771284,2.1084975 5.8784093,4.2279201"
       sodipodi:nodetypes="ccccccssssccsssc" /><path
       id="path370-6"
       style="display:inline;fill:url(#linearGradient2730);fill-opacity:1;stroke:none;stroke-width:0.183945;stroke-opacity:1"
       d="m 4.6538444,2.5702043 c 0.040903,-0.080516 0.2145022,-0.1655031 0.2145022,-0.1655031 0,0 0.080786,-0.3461213 0.045021,-0.5145314 C 4.8712526,1.6918559 4.7215882,1.5327963 4.6186909,1.3581131 4.4957343,1.1493762 4.4755925,0.74191132 4.2333335,0.74191129 3.9910744,0.74191126 3.9709326,1.1493761 3.8479759,1.3581131 3.7450786,1.5327963 3.5954142,1.6918559 3.5532992,1.8901698 c -0.035764,0.1684101 0.045021,0.5145314 0.045021,0.5145314 0,0 0.1735992,0.084987 0.214502,0.1655031 0.1244821,0.2450384 0.021796,0.824246 0.021796,0.824246 0,0 -0.7095041,-0.059043 -1.0059448,-0.23411 C 2.607819,3.0299117 2.4010143,2.8295637 2.3140759,2.5882554 2.1860546,2.2329163 2.3604521,1.4561125 2.3604521,1.4561125 c 0,0 -0.3799894,0.2794487 -0.5397481,0.4510707 C 1.6009427,2.1432635 1.400303,2.4042192 1.2548995,2.6921198 1.0862411,3.0260654 0.96331992,3.390172 0.91167389,3.7607094 0.85791885,4.1463781 0.87648455,4.5460632 0.95116078,4.9282326 1.0118367,5.2387529 1.1388182,5.535295 1.2785311,5.8191695 c 0.066926,0.1359827 0.2425155,0.3846031 0.2425155,0.3846031 0,0 -0.01252,-1.1091799 0.371185,-1.4046611 0.1854858,-0.1428377 0.7023306,0 0.7023306,0 0,0 -0.045332,-0.776949 0.2341103,-0.9364407 0.2381733,-0.1359376 0.6365684,0.00594 0.7886966,0.2341102 0.297709,0.4465239 -0.1706006,1.6009444 -0.1706006,1.6009444 0,0 0.2147361,0.6502028 0.3184905,0.9764681 0.1086932,0.3417956 0.3184906,1.0277693 0.3184906,1.0277693 L 4.0890362,6.16844 c 0,0 -0.1182651,-0.081452 -0.1442958,-0.1442957 -0.036812,-0.088876 -0.036812,-0.1997173 0,-0.2885922 0.02603,-0.062843 0.081452,-0.1182647 0.1442958,-0.1442956 0.088874,-0.036812 0.1997169,-0.036812 0.2885913,0 0.062844,0.026031 0.1182651,0.081452 0.1442959,0.1442956 0.036812,0.088875 0.036812,0.1997174 0,0.2885922 C 4.4958925,6.086988 4.3776275,6.16844 4.3776275,6.16844 l 0.00531,1.5335228 c 0,0 0.2097979,-0.6859736 0.3184914,-1.0277692 0.1037547,-0.3262653 0.3184914,-0.9764682 0.3184914,-0.9764682 0,0 -0.4683166,-1.1544196 -0.1706086,-1.6009444 0.1521277,-0.2281726 0.5505235,-0.3700479 0.7886969,-0.2341102 0.279442,0.1594917 0.2341102,0.9364407 0.2341102,0.9364407 0,0 0.5168454,-0.1428385 0.7023305,0 0.383703,0.2954824 0.3711703,1.4046611 0.3711703,1.4046611 0,0 0.2312891,-0.3489824 0.3200916,-0.5377335 0.095339,-0.202645 0.1696224,-0.4159956 0.2256829,-0.6328175 0.043659,-0.1688584 0.074072,-0.3422 0.085147,-0.5162593 C 7.5936619,4.2478733 7.5947376,3.9739936 7.5471218,3.7085982 7.4841146,3.3574157 7.3731553,3.0103222 7.2117668,2.6921198 7.07035,2.4132946 6.8787296,2.1586087 6.6667387,1.9288216 6.5010088,1.749179 6.106215,1.4561125 6.106215,1.4561125 c 0,0 0.174397,0.7768036 0.046376,1.1321429 C 6.065653,2.8295634 5.8588488,3.0299117 5.6379955,3.1603403 5.3415546,3.3354081 4.63205,3.3944503 4.63205,3.3944503 c 0,0 -0.1026875,-0.5792075 0.021794,-0.824246 z"
       sodipodi:nodetypes="acaaaaacacaacaaaaacacaacaccaaaaaaccacaacacaaaaaacaaca"
       inkscape:label="Body" /></g><g
     inkscape:label="Monochrome"
     inkscape:groupmode="layer"
     id="layer1-3-3"
     style="display:none"
     transform="translate(-2.8204699e-4)"><path
       id="path2285-5-5"
       style="display:inline;fill:#000000;fill-opacity:1;stroke:#000000;stroke-width:0.260471;stroke-dasharray:none;stroke-opacity:1"
       d="M 1.083249,6.4267704 H 7.3834172 M 1.0832489,2.0398962 H 7.3834174 M 0.39481839,4.2333333 H 8.0718482 c 0,0 -1.951e-4,0.045118 -5.836e-4,0.067613 C 8.0351953,6.3891822 6.3315279,8.0711086 4.2346863,8.0718478 2.1152617,8.072595 0.39631363,6.3554639 0.39481915,4.2360397 0.39332475,2.1166154 2.1098497,0.39706199 4.2292733,0.39482033 6.3486969,0.39257877 8.0688554,2.1084974 8.0718442,4.2279201 m -2.1934332,0.00541 c 0,2.1194248 -0.736173,3.8377675 -1.6444979,3.8385147 C 3.3255883,8.0725949 2.5888962,6.3554639 2.5882557,4.2360397 2.5876152,2.1166155 3.3232688,0.39706204 4.2315932,0.39482033 5.1399176,0.39257882 5.8771284,2.1084975 5.8784093,4.2279201"
       sodipodi:nodetypes="ccccccssssccsssc" /><path
       id="path370-6-6"
       style="display:inline;fill:#ffffff;fill-opacity:1;stroke:none;stroke-width:0.183945;stroke-opacity:1"
       d="m 4.6538444,2.5702043 c 0.040903,-0.080516 0.2145022,-0.1655031 0.2145022,-0.1655031 0,0 0.080786,-0.3461213 0.045021,-0.5145314 C 4.8712526,1.6918559 4.7215882,1.5327963 4.6186909,1.3581131 4.4957343,1.1493762 4.4755925,0.74191132 4.2333335,0.74191129 3.9910744,0.74191126 3.9709326,1.1493761 3.8479759,1.3581131 3.7450786,1.5327963 3.5954142,1.6918559 3.5532992,1.8901698 c -0.035764,0.1684101 0.045021,0.5145314 0.045021,0.5145314 0,0 0.1735992,0.084987 0.214502,0.1655031 0.1244821,0.2450384 0.021796,0.824246 0.021796,0.824246 0,0 -0.7095041,-0.059043 -1.0059448,-0.23411 C 2.607819,3.0299117 2.4010143,2.8295637 2.3140759,2.5882554 2.1860546,2.2329163 2.3604521,1.4561125 2.3604521,1.4561125 c 0,0 -0.3799894,0.2794487 -0.5397481,0.4510707 C 1.6009427,2.1432635 1.400303,2.4042192 1.2548995,2.6921198 1.0862411,3.0260654 0.96331992,3.390172 0.91167389,3.7607094 0.85791885,4.1463781 0.87648455,4.5460632 0.95116078,4.9282326 1.0118367,5.2387529 1.1388182,5.535295 1.2785311,5.8191695 c 0.066926,0.1359827 0.2425155,0.3846031 0.2425155,0.3846031 0,0 -0.01252,-1.1091799 0.371185,-1.4046611 0.1854858,-0.1428377 0.7023306,0 0.7023306,0 0,0 -0.045332,-0.776949 0.2341103,-0.9364407 0.2381733,-0.1359376 0.6365684,0.00594 0.7886966,0.2341102 0.297709,0.4465239 -0.1706006,1.6009444 -0.1706006,1.6009444 0,0 0.2147361,0.6502028 0.3184905,0.9764681 0.1086932,0.3417956 0.3184906,1.0277693 0.3184906,1.0277693 L 4.0890362,6.16844 c 0,0 -0.1182651,-0.081452 -0.1442958,-0.1442957 -0.036812,-0.088876 -0.036812,-0.1997173 0,-0.2885922 0.02603,-0.062843 0.081452,-0.1182647 0.1442958,-0.1442956 0.088874,-0.036812 0.1997169,-0.036812 0.2885913,0 0.062844,0.026031 0.1182651,0.081452 0.1442959,0.1442956 0.036812,0.088875 0.036812,0.1997174 0,0.2885922 C 4.4958925,6.086988 4.3776275,6.16844 4.3776275,6.16844 l 0.00531,1.5335228 c 0,0 0.2097979,-0.6859736 0.3184914,-1.0277692 0.1037547,-0.3262653 0.3184914,-0.9764682 0.3184914,-0.9764682 0,0 -0.4683166,-1.1544196 -0.1706086,-1.6009444 0.1521277,-0.2281726 0.5505235,-0.3700479 0.7886969,-0.2341102 0.279442,0.1594917 0.2341102,0.9364407 0.2341102,0.9364407 0,0 0.5168454,-0.1428385 0.7023305,0 0.383703,0.2954824 0.3711703,1.4046611 0.3711703,1.4046611 0,0 0.2312891,-0.3489824 0.3200916,-0.5377335 0.095339,-0.202645 0.1696224,-0.4159956 0.2256829,-0.6328175 0.043659,-0.1688584 0.074072,-0.3422 0.085147,-0.5162593 C 7.5936619,4.2478733 7.5947376,3.9739936 7.5471218,3.7085982 7.4841146,3.3574157 7.3731553,3.0103222 7.2117668,2.6921198 7.07035,2.4132946 6.8787296,2.1586087 6.6667387,1.9288216 6.5010088,1.749179 6.106215,1.4561125 6.106215,1.4561125 c 0,0 0.174397,0.7768036 0.046376,1.1321429 C 6.065653,2.8295634 5.8588488,3.0299117 5.6379955,3.1603403 5.3415546,3.3354081 4.63205,3.3944503 4.63205,3.3944503 c 0,0 -0.1026875,-0.5792075 0.021794,-0.824246 z"
       sodipodi:nodetypes="acaaaaacacaacaaaaacacaacaccaaaaaaccacaacacaaaaaacaaca"
       inkscape:label="Body" /></g></svg>
